<!DOCTYPE svg PUBLIC "-//W3C//DTD SVG 1.1//EN" "http://www.w3.org/Graphics/SVG/1.1/DTD/svg11.dtd">
<!-- Uploaded to: SVG Repo, www.svgrepo.com, Transformed by: SVG Repo Mixer Tools -->
<svg fill="#ffffff" height="800px" width="800px" version="1.1" id="Layer_1" xmlns="http://www.w3.org/2000/svg" xmlns:xlink="http://www.w3.org/1999/xlink" viewBox="0 0 503.607 503.607" xml:space="preserve" stroke="#ffffff" stroke-width="4.532463">
<g id="SVGRepo_bgCarrier" stroke-width="0"/>
<g id="SVGRepo_tracerCarrier" stroke-linecap="round" stroke-linejoin="round"/>
<g id="SVGRepo_iconCarrier"> <g transform="translate(1 1)"> <g> <g> <path d="M259.197,204.639V78.738c0-11.751-9.233-20.984-20.984-20.984h-4.197v-12.59c0-11.751-9.233-20.984-20.984-20.984 h-62.951L131.616,2.357C129.938-0.161,127.42-1,124.902-1H36.77C25.02-1,15.787,8.233,15.787,19.984v38.178 C6.108,60.061-1,68.428-1,78.738v125.902c0,11.751,9.233,20.984,20.984,20.984h218.229 C249.964,225.623,259.197,216.39,259.197,204.639z M32.574,19.984c0-2.518,1.679-4.197,4.197-4.197h83.934L139.17,37.61 c1.679,2.518,4.197,3.357,6.715,3.357h67.148c2.518,0,4.197,1.679,4.197,4.197v12.59H32.574V19.984z M242.41,204.639 c0,2.518-1.679,4.197-4.197,4.197H19.984c-2.518,0-4.197-1.679-4.197-4.197V78.738c0-2.518,1.679-4.197,4.197-4.197h4.197 h201.443h12.59c2.518,0,4.197,1.679,4.197,4.197V204.639z"/> <path d="M91.328,91.328H40.967c-5.036,0-8.393,3.357-8.393,8.393s3.357,8.393,8.393,8.393h50.361 c5.036,0,8.393-3.357,8.393-8.393S96.364,91.328,91.328,91.328z"/> <path d="M91.328,124.902H40.967c-5.036,0-8.393,3.357-8.393,8.393s3.357,8.393,8.393,8.393h50.361 c5.036,0,8.393-3.357,8.393-8.393S96.364,124.902,91.328,124.902z"/> <path d="M481.623,334.738h-4.197v-12.59c0-11.751-9.233-20.984-20.984-20.984h-62.951l-18.466-21.823 c-1.679-2.518-4.197-3.357-6.715-3.357H280.18c-11.751,0-20.984,9.233-20.984,20.984v38.178 c-9.679,1.899-16.787,10.266-16.787,20.576v125.902c0,11.751,9.233,20.984,20.984,20.984h218.229 c11.751,0,20.984-9.233,20.984-20.984V355.721C502.607,343.97,493.374,334.738,481.623,334.738z M275.984,296.967 c0-2.518,1.679-4.197,4.197-4.197h83.934l18.466,21.823c1.679,2.518,4.197,3.357,6.715,3.357h67.148 c2.518,0,4.197,1.679,4.197,4.197v12.59H275.984V296.967z M485.82,481.623c0,2.518-1.679,4.197-4.197,4.197H263.393 c-2.518,0-4.197-1.679-4.197-4.197V355.721c0-2.518,1.679-4.197,4.197-4.197h4.197h201.443h12.59 c2.518,0,4.197,1.679,4.197,4.197V481.623z"/> <path d="M334.738,368.311h-50.361c-5.036,0-8.393,3.357-8.393,8.393c0,5.036,3.357,8.393,8.393,8.393h50.361 c5.036,0,8.393-3.357,8.393-8.393C343.131,371.669,339.774,368.311,334.738,368.311z"/> <path d="M334.738,401.885h-50.361c-5.036,0-8.393,3.357-8.393,8.393s3.357,8.393,8.393,8.393h50.361 c5.036,0,8.393-3.357,8.393-8.393S339.774,401.885,334.738,401.885z"/> <path d="M208.836,427.066H91.328V259.197c0-5.036-3.357-8.393-8.393-8.393s-8.393,3.357-8.393,8.393v176.262 c0,5.036,3.357,8.393,8.393,8.393h125.902c5.036,0,8.393-3.357,8.393-8.393C217.229,430.423,213.872,427.066,208.836,427.066z"/> <path d="M292.771,99.721h125.902V267.59c0,5.036,3.357,8.393,8.393,8.393c5.036,0,8.393-3.357,8.393-8.393V91.328 c0-5.036-3.357-8.393-8.393-8.393H292.771c-5.036,0-8.393,3.357-8.393,8.393S287.734,99.721,292.771,99.721z"/> </g> </g> </g> </g>
</svg>